<svg xmlns:svg="http://www.w3.org/2000/svg" xmlns="http://www.w3.org/2000/svg" width="114.54" height="141.11" viewBox="0 0 405.85 500" version="1.1"><style>.s0{fill:#1992f3;}</style><g transform="translate(677.91187,-413.3166)"><path d="m-591.62 601.28 0 87.25-73.79 48.6 0 153.75 73.79-45.71c0 0 42.75 6.03 57.33 51.29l57.33 0 57.33 0c9.87-42.34 57.33-51.29 57.33-51.29l77.74 45.71 0-149.72-77.74-52.63 0-87.25c-0.67-134.25-114.66-174.5-114.66-174.5 0 0-114.66 52.54-114.66 174.5z" style="baseline-shift:baseline;block-progression:tb;color-interpolation-filters:linearRGB;color-interpolation:sRGB;color-rendering:auto;direction:ltr;fill:#E3F2FD;font-family:sans-serif;font-size:medium;image-rendering:auto;isolation:auto;letter-spacing:normal;line-height:normal;mix-blend-mode:normal;shape-rendering:auto;solid-color:#000000;solid-opacity:1;stroke-width:24.99;stroke:#1992f3;text-align:start;text-anchor:start;text-decoration-color:#000000;text-decoration-line:none;text-decoration-style:solid;text-decoration:none;text-indent:0;text-rendering:auto;text-transform:none;white-space:normal;word-spacing:normal;writing-mode:lr-tb;"/><rect width="229.29" height="66.14" x="-591.57" y="779.18" ry="0" rx="0" style="fill:none;stroke-width:25;stroke:#1992f3"/><rect width="24.99" height="144.82" x="-604.15" y="682.17" ry="0" rx="0" fill="#1992f3"/><rect width="24.99" height="144.82" x="-374.79" y="663.75" ry="0" rx="0" fill="#1992f3"/></g></svg>